<svg width="490" height="169" viewBox="0 0 490 169" fill="none" xmlns="http://www.w3.org/2000/svg">
<path d="M33.3429 165.527H65.7595V146.544V2.31507H58.35L0 44.6808H33.3429V146.312V165.527Z" fill="#FFF38A"/>
<path d="M156.251 0C123.14 0 98.1328 22.9192 98.1328 56.0247C98.1328 86.3521 119.667 107.419 150.694 107.419C167.829 107.419 180.332 101.4 188.205 89.8247C183.574 124.782 159.956 143.534 128.929 143.534C115.499 143.534 105.774 141.914 96.975 137.978C97.9012 155.573 115.499 169 142.59 169C190.057 169 223.863 130.801 223.863 77.3233C223.863 28.4753 199.319 0 156.251 0ZM133.56 54.1726C133.56 38.1986 144.442 27.7808 159.493 27.7808C175.238 27.7808 184.963 37.7356 187.973 60.8863C183.111 73.1562 172.691 80.3329 159.724 80.3329C143.979 80.3329 133.56 69.6836 133.56 54.1726Z" fill="#FFF38A"/>
<path d="M250.249 165.527H287.296L359.076 3.4726H238.208V33.337H312.072L250.249 165.527Z" fill="#FFF38A"/>
<path d="M381.173 165.527H418.22L490 3.4726H369.132V33.337H442.996L381.173 165.527Z" fill="#FFF38A"/>
</svg>
