<svg width="532" height="169" viewBox="0 0 532 169" fill="none" xmlns="http://www.w3.org/2000/svg">
<path d="M33.368 165.527H65.8091V146.544V2.31507H58.394L0 44.6808H33.368V146.312V165.527Z" fill="#FFF38A"/>
<path d="M156.369 0C123.233 0 98.2068 22.9192 98.2068 56.0247C98.2068 86.3521 119.757 107.419 150.808 107.419C167.955 107.419 180.468 101.4 188.347 89.8247C183.712 124.782 160.077 143.534 129.026 143.534C115.586 143.534 105.854 141.914 97.0482 137.978C97.9751 155.573 115.586 169 142.697 169C190.201 169 224.032 130.801 224.032 77.3233C224.032 28.4753 199.469 0 156.369 0ZM133.66 54.1726C133.66 38.1986 144.551 27.7808 159.613 27.7808C175.37 27.7808 185.103 37.7356 188.115 60.8863C183.249 73.1562 172.821 80.3329 159.845 80.3329C144.088 80.3329 133.66 69.6836 133.66 54.1726Z" fill="#FFF38A"/>
<path d="M311.272 169C349.043 169 374.069 146.544 374.069 119.458C374.069 99.0849 366.19 85.6575 347.189 76.8603C358.311 71.0726 368.276 59.9603 368.276 43.5233C368.276 18.289 345.103 0 310.577 0C276.745 0 253.573 21.5301 253.573 47.2274C253.573 63.4329 260.988 76.1658 273.501 84.2685C257.049 90.7507 247.78 103.715 247.78 121.541C247.78 148.859 272.574 169 311.272 169ZM281.843 119.226C281.843 107.882 287.636 99.5479 299.917 94.2233L318.455 99.5479C333.517 102.789 340.005 109.966 340.005 120.384C340.005 133.811 328.188 142.608 311.272 142.608C292.966 142.608 281.843 133.116 281.843 119.226ZM286.014 43.2918C286.014 31.9479 295.746 24.0767 310.577 24.0767C325.407 24.0767 336.066 33.5685 336.066 45.8384C336.066 55.7931 331.2 62.7384 317.992 67.3685L307.796 64.5904C292.039 60.8863 286.014 53.0151 286.014 43.2918Z" fill="#FFF38A"/>
<path d="M465.032 169C506.511 169 532 138.441 532 84.5C532 30.5589 506.511 0 465.032 0C423.786 0 398.065 30.5589 398.065 84.5C398.065 138.441 423.786 169 465.032 169ZM432.128 84.5C432.128 47.2274 443.482 30.5589 465.032 30.5589C486.814 30.5589 498.169 47.2274 498.169 84.5C498.169 121.773 486.814 138.441 465.032 138.441C443.482 138.441 432.128 121.773 432.128 84.5Z" fill="#FFF38A"/>
</svg>
