<svg width="514" height="169" viewBox="0 0 514 169" fill="none" xmlns="http://www.w3.org/2000/svg">
<path d="M33.3854 165.527H65.8435V2.31507H58.4245L0 44.6808H33.3854V165.527Z" fill="#FFF38A"/>
<path d="M156.451 0C123.297 0 98.258 22.9192 98.258 56.0247C98.258 86.3521 119.819 107.419 150.886 107.419C168.043 107.419 180.562 101.4 188.445 89.8247C183.808 124.782 160.16 143.534 129.093 143.534C115.646 143.534 105.909 141.914 97.0988 137.978C98.0262 155.573 115.646 169 142.772 169C190.3 169 224.149 130.801 224.149 77.3233C224.149 28.4753 199.574 0 156.451 0ZM133.73 54.1726C133.73 38.1986 144.627 27.7808 159.696 27.7808C175.462 27.7808 185.199 37.7356 188.213 60.8863C183.344 73.1562 172.912 80.3329 159.928 80.3329C144.163 80.3329 133.73 69.6836 133.73 54.1726Z" fill="#FFF38A"/>
<path d="M311.434 169C349.225 169 374.264 146.544 374.264 119.458C374.264 99.0849 366.381 85.6575 347.37 76.8603C358.498 71.0726 368.468 59.9603 368.468 43.5233C368.468 18.289 345.283 0 310.739 0C276.89 0 253.705 21.5301 253.705 47.2274C253.705 63.4329 261.124 76.1658 273.644 84.2685C257.183 90.7507 247.909 103.715 247.909 121.541C247.909 148.859 272.716 169 311.434 169ZM281.99 119.226C281.99 107.882 287.786 99.5479 300.074 94.2233L318.621 99.5479C333.691 102.789 340.183 109.966 340.183 120.384C340.183 133.811 328.359 142.608 311.434 142.608C293.119 142.608 281.99 133.116 281.99 119.226ZM286.163 43.2918C286.163 31.9479 295.901 24.0767 310.739 24.0767C325.577 24.0767 336.241 33.5685 336.241 45.8384C336.241 55.7931 331.373 62.7384 318.158 67.3685L307.957 64.5904C292.191 60.8863 286.163 53.0151 286.163 43.2918Z" fill="#FFF38A"/>
<path d="M446.534 169C485.483 169 511.218 146.312 511.218 111.586C511.218 84.037 495.684 63.4329 469.486 58.5712L514 3.4726H400.861V33.337H454.184L415.003 82.6479C423.349 80.5644 429.841 79.8699 438.187 79.8699C461.372 79.8699 477.369 90.9822 477.369 110.197C477.369 127.329 463.69 138.673 442.824 138.673C424.972 138.673 409.902 130.107 399.469 113.67V148.859C408.975 161.36 426.595 169 446.534 169Z" fill="#FFF38A"/>
</svg>
