
<svg version="1.0" xmlns="http://www.w3.org/2000/svg"
 width="457.000000pt" height="527.000000pt" viewBox="0 0 457.000000 527.000000"
 preserveAspectRatio="xMidYMid meet">

<g transform="translate(0.000000,527.000000) scale(0.100000,-0.100000)"
fill='#fff38a' stroke="none">
<path d="M1132 4612 l-1132 -646 0 -1331 0 -1331 1121 -639 c616 -352 1131
-644 1143 -649 19 -7 204 95 1164 640 l1142 648 0 1331 0 1331 -1140 647
c-626 356 -1145 647 -1152 646 -7 0 -523 -291 -1146 -647z m2232 -122 l1066
-605 0 -1250 0 -1250 -1067 -605 c-586 -333 -1073 -605 -1082 -605 -9 0 -494
272 -1079 605 l-1062 605 0 1250 0 1250 1063 607 c584 333 1069 606 1078 605
9 -1 496 -274 1083 -607z"/>
<path d="M2060 4523 c-105 -13 -292 -58 -396 -94 -638 -223 -1098 -749 -1242
-1419 -25 -117 -27 -141 -27 -375 0 -234 2 -258 27 -375 164 -766 742 -1337
1508 -1492 102 -20 143 -23 360 -23 227 1 254 3 370 27 759 163 1325 728 1488
1488 25 117 27 141 27 375 0 234 -2 258 -27 375 -108 501 -392 925 -808 1205
-109 73 -338 185 -460 225 -199 65 -312 82 -560 85 -124 2 -241 1 -260 -2z
m408 -137 c2 -2 7 -156 12 -341 5 -185 10 -339 13 -341 2 -2 61 136 132 306
70 171 131 313 135 315 16 10 330 -109 330 -124 0 -3 -52 -150 -115 -325 -64
-175 -114 -320 -112 -322 2 -2 109 106 237 241 128 135 236 245 241 245 17 0
199 -160 234 -206 l26 -34 -207 -237 c-114 -131 -219 -251 -233 -266 l-25 -28
74 35 c41 19 185 86 320 150 225 106 246 114 258 98 22 -28 142 -275 142 -292
0 -10 -102 -69 -304 -175 -168 -88 -301 -161 -298 -162 4 -2 158 8 342 21 184
13 338 21 342 18 16 -17 47 -352 32 -352 -28 -1 -677 -79 -680 -82 -2 -2 142
-48 319 -103 177 -54 325 -100 328 -102 17 -8 -74 -331 -95 -339 -6 -2 -158
34 -338 81 -180 47 -330 85 -333 85 -4 0 114 -95 262 -212 147 -116 270 -213
273 -215 11 -10 -96 -165 -177 -257 l-32 -36 -283 204 c-156 112 -284 203
-286 202 -1 -2 77 -137 173 -300 96 -164 175 -299 175 -301 0 -8 -187 -128
-242 -156 l-58 -29 -126 192 c-236 362 -266 405 -260 373 13 -70 106 -648 106
-660 0 -9 -32 -21 -87 -34 -87 -20 -253 -45 -258 -39 -1 2 -33 149 -70 328
-37 179 -71 333 -74 342 -3 10 -38 -133 -76 -318 -39 -185 -72 -339 -75 -344
-6 -10 -183 15 -275 39 -57 14 -70 21 -68 37 1 10 24 162 53 337 28 175 50
322 48 326 -2 5 -87 -120 -189 -278 -131 -201 -191 -286 -203 -284 -21 1 -208
113 -255 152 l-34 28 173 294 c95 162 175 298 178 303 8 14 -4 6 -291 -201
-147 -106 -272 -193 -276 -193 -22 0 -216 263 -206 279 3 5 126 105 275 222
148 117 268 214 267 215 -1 1 -146 -35 -322 -81 -176 -46 -328 -85 -339 -87
-15 -2 -24 10 -43 62 -24 64 -78 270 -71 274 2 1 156 49 342 107 187 57 333
105 325 106 -8 2 -156 19 -329 38 -173 20 -325 38 -337 40 -21 5 -23 11 -23
82 0 84 18 244 30 262 5 9 89 6 351 -12 189 -14 345 -24 347 -22 2 1 -136 76
-307 166 l-309 163 20 50 c25 65 118 244 133 256 7 6 59 -14 150 -57 366 -172
495 -231 491 -225 -2 4 -106 124 -230 267 l-226 260 68 68 c60 61 183 167 194
167 2 0 112 -113 243 -250 131 -138 239 -249 241 -247 2 1 -49 146 -112 320
-62 175 -114 322 -114 328 0 17 273 129 314 129 8 0 70 -137 147 -325 l134
-324 9 354 8 354 52 4 c55 5 297 -1 304 -7z"/>
</g>
</svg>
