
<svg version="1.0" xmlns="http://www.w3.org/2000/svg"
 width="519.000000pt" height="599.000000pt" viewBox="0 0 519.000000 599.000000"
 preserveAspectRatio="xMidYMid meet" fill='#fff38a'>

<g transform="translate(0.000000,599.000000) scale(0.100000,-0.100000)"
fill='#fff38a' stroke="none">
<path d="M2565 5971 c-16 -10 -284 -164 -595 -341 -311 -178 -569 -326 -573
-330 -7 -6 118 -230 129 -230 3 0 243 137 534 305 291 168 534 305 540 305 5
0 249 -138 541 -306 292 -168 534 -302 539 -297 4 4 34 54 68 110 44 74 57
104 49 111 -14 11 -1195 692 -1199 692 -2 0 -16 -9 -33 -19z"/>
<path d="M2265 5154 c-170 -107 -334 -210 -362 -227 l-53 -33 36 -57 c19 -31
40 -57 45 -57 5 0 88 45 185 100 96 56 178 98 183 96 4 -3 11 -40 15 -83 4
-43 29 -280 57 -526 27 -247 49 -461 49 -475 0 -25 -22 -40 -249 -170 l-249
-143 -254 187 c-580 427 -648 478 -645 480 1 1 40 24 87 51 47 28 129 76 182
107 l97 57 -32 59 c-18 33 -36 60 -42 60 -5 0 -180 -93 -389 -207 l-379 -206
6 -151 c4 -83 10 -278 13 -433 l7 -283 73 0 74 0 2 214 3 215 513 -226 512
-226 -2 -290 -3 -291 -495 -218 c-272 -120 -503 -221 -512 -224 -17 -5 -18 9
-18 211 l0 216 -72 -3 -73 -3 -6 -215 c-4 -118 -10 -314 -13 -436 l-7 -221
374 -201 c206 -111 380 -202 386 -204 7 -2 27 24 46 58 l35 60 -185 109 c-141
84 -182 112 -172 121 23 21 880 646 893 651 7 3 121 -57 254 -133 187 -108
240 -143 240 -159 1 -45 -114 -1091 -120 -1098 -4 -4 -86 37 -182 93 -96 55
-180 100 -185 100 -6 0 -26 -25 -46 -54 l-37 -55 28 -19 c64 -46 712 -442 722
-442 16 0 721 443 727 457 6 15 -54 113 -69 113 -6 0 -89 -46 -185 -101 -96
-56 -176 -99 -179 -97 -7 7 -125 1069 -122 1097 3 21 38 45 241 163 132 76
243 138 248 138 4 0 167 -116 361 -258 532 -389 551 -403 542 -411 -5 -4 -85
-52 -179 -106 -93 -54 -172 -99 -174 -101 -7 -7 52 -124 62 -124 8 0 755 396
766 406 7 6 -21 868 -28 875 -3 3 -36 4 -73 1 l-68 -4 -2 -212 -3 -212 -500
220 c-275 122 -506 225 -512 229 -10 6 -13 76 -13 290 l0 283 513 225 512 226
3 -213 2 -214 74 0 73 0 6 213 c4 116 10 313 13 437 l7 225 -380 203 c-209
111 -384 202 -390 202 -10 0 -69 -117 -62 -123 2 -2 81 -49 176 -103 95 -54
173 -103 174 -109 2 -5 -199 -157 -446 -338 l-448 -327 -33 19 c-18 11 -128
74 -246 142 -117 67 -214 123 -216 125 -2 1 1 44 7 96 6 51 33 300 61 552 28
253 52 462 55 464 2 3 83 -41 179 -97 97 -55 180 -101 185 -101 13 0 73 100
68 114 -3 6 -49 39 -103 72 -55 34 -216 134 -359 223 -142 88 -266 161 -275
160 -8 -1 -154 -89 -325 -195z"/>
<path d="M610 4844 c-327 -189 -598 -344 -602 -344 -5 0 -8 -315 -8 -700 l0
-700 130 0 130 0 2 621 3 621 532 307 c293 169 535 310 539 314 6 6 -110 212
-125 221 -3 2 -274 -151 -601 -340z"/>
<path d="M3967 5153 c-48 -77 -107 -182 -107 -190 1 -4 240 -145 533 -313
l532 -306 3 -622 2 -622 130 0 130 0 0 698 0 697 -558 323 c-306 177 -576 334
-599 348 l-42 25 -24 -38z"/>
<path d="M0 2192 l0 -697 157 -92 c87 -50 262 -151 388 -224 127 -73 326 -188
443 -256 117 -68 216 -123 220 -123 13 0 135 221 126 229 -5 5 -155 93 -334
196 -179 103 -418 241 -532 307 l-208 120 0 619 0 619 -130 0 -130 0 0 -698z"/>
<path d="M4928 2268 l-3 -621 -527 -306 c-289 -168 -530 -309 -534 -313 -7 -8
115 -228 127 -228 4 0 240 135 525 301 286 166 554 321 597 346 l77 45 0 699
0 699 -130 0 -130 0 -2 -622z"/>
<path d="M1455 808 c-36 -61 -62 -114 -58 -118 16 -14 1194 -690 1202 -690 5
0 62 31 127 68 66 38 328 189 584 337 256 147 473 273 482 279 15 11 11 22
-44 117 -33 57 -64 108 -68 113 -5 4 -249 -132 -544 -303 l-536 -311 -403 233
c-221 129 -461 268 -534 310 -72 43 -134 77 -137 77 -3 0 -35 -50 -71 -112z"/>
</g>
</svg>
